<svg width="281" height="104" viewBox="0 0 281 104" fill="none" xmlns="http://www.w3.org/2000/svg">
<path d="M19.244 74.088C16.0707 74.088 13.2147 73.3627 10.676 71.912C8.18267 70.416 6.21067 68.3307 4.76 65.656C3.30933 62.936 2.584 59.74 2.584 56.068C2.584 52.8947 3.28667 49.9253 4.692 47.16C6.14267 44.3947 8.16 42.1733 10.744 40.496C13.328 38.7733 16.32 37.912 19.72 37.912C21.624 37.912 23.4147 38.2067 25.092 38.796C26.8147 39.3853 28.3333 40.3147 29.648 41.584C31.008 42.808 32.0733 44.4173 32.844 46.412C33.6147 48.3613 34 50.7413 34 53.552L10.608 53.96C10.608 57.0427 10.948 59.7853 11.628 62.188C12.3533 64.5907 13.5093 66.4493 15.096 67.764C16.6827 69.0787 18.7453 69.736 21.284 69.736C22.508 69.736 23.8 69.532 25.16 69.124C26.5653 68.6707 27.88 68.036 29.104 67.22C30.3733 66.404 31.4387 65.4293 32.3 64.296L34.408 66.132C33.048 68.172 31.484 69.7813 29.716 70.96C27.948 72.0933 26.1347 72.8867 24.276 73.34C22.4627 73.8387 20.7853 74.088 19.244 74.088ZM10.88 50.424H26.588C26.588 48.7013 26.3387 47.16 25.84 45.8C25.3867 44.3947 24.6613 43.284 23.664 42.468C22.6667 41.652 21.3973 41.244 19.856 41.244C17.4533 41.244 15.4813 42.0147 13.94 43.556C12.3987 45.052 11.3787 47.3413 10.88 50.424ZM39.7131 73V70.144C41.0731 70.144 42.0251 69.8267 42.5691 69.192C43.1131 68.5573 43.4304 67.6733 43.5211 66.54C43.6571 65.4067 43.7251 64.092 43.7251 62.596V48.452C43.7251 47.7267 43.7251 46.956 43.7251 46.14C43.7704 45.2787 43.8611 44.44 43.9971 43.624C43.2264 43.6693 42.4104 43.7147 41.5491 43.76C40.6877 43.76 39.8944 43.7827 39.1691 43.828V40.224C41.2091 40.224 42.7957 40.1333 43.9291 39.952C45.1077 39.7253 45.9917 39.476 46.5811 39.204C47.2157 38.932 47.6917 38.6373 48.0091 38.32H50.4571C50.5477 38.7733 50.5931 39.3173 50.5931 39.952C50.6384 40.5413 50.6837 41.176 50.7291 41.856C52.1344 40.6773 53.7211 39.7253 55.4891 39C57.3024 38.2747 59.0477 37.912 60.7251 37.912C62.9464 37.912 64.7824 38.32 66.2331 39.136C67.7291 39.9067 68.9077 41.0173 69.7691 42.468C71.3557 41.1533 73.1464 40.0653 75.1411 39.204C77.1357 38.3427 79.0851 37.912 80.9891 37.912C84.8424 37.912 87.6984 39.068 89.5571 41.38C91.4157 43.6467 92.3224 47.4547 92.2771 52.804L92.2091 64.568C92.2091 65.384 92.1864 66.2227 92.1411 67.084C92.1411 67.9 92.0731 68.7387 91.9371 69.6C92.6624 69.5547 93.4104 69.532 94.1811 69.532C94.9517 69.4867 95.6544 69.4413 96.2891 69.396V73H81.3291V70.144C82.5984 70.144 83.4824 69.8267 83.9811 69.192C84.5251 68.5573 84.8424 67.6733 84.9331 66.54C85.0691 65.4067 85.1371 64.092 85.1371 62.596V52.804C85.0917 49.2227 84.5024 46.5933 83.3691 44.916C82.2357 43.2387 80.5131 42.4 78.2011 42.4C76.8864 42.4 75.5944 42.6947 74.3251 43.284C73.0557 43.828 71.9224 44.5307 70.9251 45.392C71.1517 46.1627 71.3104 47.024 71.4011 47.976C71.5371 48.8827 71.6051 49.8347 71.6051 50.832C71.5597 53.0987 71.5371 55.388 71.5371 57.7C71.5371 59.9667 71.5371 62.256 71.5371 64.568C71.5371 65.384 71.5144 66.2227 71.4691 67.084C71.4237 67.9 71.3557 68.7387 71.2651 69.6C71.9904 69.5547 72.7157 69.532 73.4411 69.532C74.2117 69.4867 74.9144 69.4413 75.5491 69.396V73H60.4531V70.144C61.8131 70.144 62.7424 69.8267 63.2411 69.192C63.7851 68.5573 64.1024 67.6733 64.1931 66.54C64.3291 65.4067 64.3971 64.092 64.3971 62.596V52.736C64.4424 49.1547 63.9211 46.5253 62.8331 44.848C61.7904 43.1253 60.1131 42.2867 57.8011 42.332C56.4864 42.332 55.2171 42.6267 53.9931 43.216C52.7691 43.76 51.7037 44.4627 50.7971 45.324C50.7971 45.868 50.7971 46.4347 50.7971 47.024C50.8424 47.6133 50.8651 48.248 50.8651 48.928V64.568C50.8651 65.384 50.8424 66.2227 50.7971 67.084C50.7517 67.9 50.6837 68.7387 50.5931 69.6C51.3184 69.5547 52.0437 69.532 52.7691 69.532C53.4944 69.4867 54.1744 69.4413 54.8091 69.396V73H39.7131ZM117.935 74.088C114.716 74.088 111.815 73.3627 109.231 71.912C106.647 70.4613 104.584 68.444 103.043 65.86C101.547 63.2307 100.799 60.216 100.799 56.816C100.799 53.144 101.547 49.9027 103.043 47.092C104.584 44.236 106.647 41.992 109.231 40.36C111.815 38.728 114.694 37.912 117.867 37.912C121.086 37.912 123.987 38.66 126.571 40.156C129.155 41.6067 131.195 43.6467 132.691 46.276C134.232 48.86 135.003 51.852 135.003 55.252C135.003 58.8333 134.255 62.052 132.759 64.908C131.263 67.764 129.223 70.008 126.639 71.64C124.1 73.272 121.199 74.088 117.935 74.088ZM118.411 70.688C120.587 70.6427 122.287 69.9627 123.511 68.648C124.78 67.3333 125.687 65.656 126.231 63.616C126.775 61.5307 127.047 59.3773 127.047 57.156C127.047 55.2067 126.866 53.3027 126.503 51.444C126.186 49.54 125.664 47.8173 124.939 46.276C124.214 44.7347 123.262 43.5107 122.083 42.604C120.904 41.652 119.476 41.1987 117.799 41.244C115.668 41.244 113.923 41.9013 112.563 43.216C111.248 44.5307 110.274 46.2307 109.639 48.316C109.05 50.356 108.755 52.532 108.755 54.844C108.755 57.5187 109.095 60.0573 109.775 62.46C110.455 64.8627 111.498 66.8347 112.903 68.376C114.354 69.9173 116.19 70.688 118.411 70.688ZM137.662 91.428C135.576 91.428 134.058 90.9747 133.106 90.068C132.108 89.1613 131.61 88.1413 131.61 87.008C131.61 86.1013 131.904 85.2627 132.494 84.492C133.083 83.7667 133.922 83.3813 135.01 83.336C136.143 83.2907 136.982 83.6307 137.526 84.356C138.07 85.0813 138.342 85.8293 138.342 86.6C138.342 86.736 138.342 86.872 138.342 87.008C138.342 87.144 138.319 87.28 138.274 87.416C138.772 87.6427 139.294 87.756 139.838 87.756C141.016 87.756 141.878 87.348 142.422 86.532C143.011 85.716 143.396 84.6733 143.578 83.404C143.804 82.18 143.918 80.956 143.918 79.732V48.52C143.918 47.7493 143.94 46.9787 143.986 46.208C144.031 45.392 144.099 44.5307 144.19 43.624C143.374 43.6693 142.535 43.7147 141.674 43.76C140.858 43.76 140.087 43.7827 139.362 43.828V40.224C141.402 40.224 143.034 40.1333 144.258 39.952C145.482 39.7253 146.411 39.476 147.046 39.204C147.726 38.932 148.224 38.6373 148.542 38.32H151.058V73.068C151.058 77.284 150.468 80.752 149.29 83.472C148.111 86.192 146.502 88.1867 144.462 89.456C142.467 90.7707 140.2 91.428 137.662 91.428ZM147.318 32.064C146.139 32.064 145.142 31.6333 144.326 30.772C143.51 29.8653 143.102 28.7773 143.102 27.508C143.102 26.2387 143.532 25.1733 144.394 24.312C145.255 23.4053 146.23 22.952 147.318 22.952C148.496 22.952 149.471 23.4053 150.242 24.312C151.058 25.1733 151.466 26.2387 151.466 27.508C151.466 28.7773 151.058 29.8653 150.242 30.772C149.471 31.6333 148.496 32.064 147.318 32.064ZM156.588 70.144C157.948 70.144 158.9 69.8267 159.444 69.192C159.988 68.5573 160.305 67.6733 160.396 66.54C160.532 65.4067 160.6 64.092 160.6 62.596V48.52C160.6 47.7493 160.623 46.9787 160.668 46.208C160.713 45.392 160.781 44.5307 160.872 43.624C160.101 43.6693 159.285 43.7147 158.424 43.76C157.563 43.76 156.769 43.7827 156.044 43.828V40.224C158.084 40.224 159.693 40.1333 160.872 39.952C162.096 39.7253 163.025 39.476 163.66 39.204C164.34 38.932 164.839 38.6373 165.156 38.32H167.74V64.568C167.74 65.384 167.717 66.2227 167.672 67.084C167.627 67.9 167.559 68.7387 167.468 69.6C168.193 69.5547 168.919 69.532 169.644 69.532C170.415 69.4867 171.117 69.4413 171.752 69.396V73H156.588V70.144ZM163.864 32.064C162.685 32.064 161.688 31.6333 160.872 30.772C160.056 29.8653 159.648 28.7773 159.648 27.508C159.648 26.2387 160.079 25.1733 160.94 24.312C161.801 23.4053 162.776 22.952 163.864 22.952C165.043 22.952 166.017 23.4053 166.788 24.312C167.604 25.1733 168.012 26.2387 168.012 27.508C168.012 28.7773 167.604 29.8653 166.788 30.772C166.017 31.6333 165.043 32.064 163.864 32.064Z" fill="white"/>
<circle cx="229" cy="52" r="52" fill="#FBBD16"/>
<path d="M193.058 81.718C191.279 81.718 189.984 81.3313 189.172 80.558C188.321 79.7847 187.896 78.9147 187.896 77.948C187.896 77.1747 188.147 76.4593 188.65 75.802C189.153 75.1833 189.868 74.8547 190.796 74.816C191.763 74.7773 192.478 75.0673 192.942 75.686C193.406 76.3047 193.638 76.9427 193.638 77.6C193.638 77.716 193.638 77.832 193.638 77.948C193.638 78.064 193.619 78.18 193.58 78.296C194.005 78.4893 194.45 78.586 194.914 78.586C195.919 78.586 196.654 78.238 197.118 77.542C197.621 76.846 197.949 75.9567 198.104 74.874C198.297 73.83 198.394 72.786 198.394 71.742V45.12C198.394 44.4627 198.413 43.8053 198.452 43.148C198.491 42.452 198.549 41.7173 198.626 40.944C197.93 40.9827 197.215 41.0213 196.48 41.06C195.784 41.06 195.127 41.0793 194.508 41.118V38.044C196.248 38.044 197.64 37.9667 198.684 37.812C199.728 37.6187 200.521 37.406 201.062 37.174C201.642 36.942 202.067 36.6907 202.338 36.42H204.484V66.058C204.484 69.654 203.981 72.612 202.976 74.932C201.971 77.252 200.598 78.9533 198.858 80.036C197.157 81.1573 195.223 81.718 193.058 81.718ZM201.294 31.084C200.289 31.084 199.438 30.7167 198.742 29.982C198.046 29.2087 197.698 28.2807 197.698 27.198C197.698 26.1153 198.065 25.2067 198.8 24.472C199.535 23.6987 200.366 23.312 201.294 23.312C202.299 23.312 203.131 23.6987 203.788 24.472C204.484 25.2067 204.832 26.1153 204.832 27.198C204.832 28.2807 204.484 29.2087 203.788 29.982C203.131 30.7167 202.299 31.084 201.294 31.084ZM223.527 66.928C220.782 66.928 218.307 66.3093 216.103 65.072C213.899 63.8347 212.14 62.114 210.825 59.91C209.549 57.6673 208.911 55.096 208.911 52.196C208.911 49.064 209.549 46.2993 210.825 43.902C212.14 41.466 213.899 39.552 216.103 38.16C218.307 36.768 220.762 36.072 223.469 36.072C226.214 36.072 228.689 36.71 230.893 37.986C233.097 39.2233 234.837 40.9633 236.113 43.206C237.428 45.41 238.085 47.962 238.085 50.862C238.085 53.9167 237.447 56.662 236.171 59.098C234.895 61.534 233.155 63.448 230.951 64.84C228.786 66.232 226.311 66.928 223.527 66.928ZM223.933 64.028C225.789 63.9893 227.239 63.4093 228.283 62.288C229.366 61.1667 230.139 59.736 230.603 57.996C231.067 56.2173 231.299 54.3807 231.299 52.486C231.299 50.8233 231.144 49.1993 230.835 47.614C230.564 45.99 230.12 44.5207 229.501 43.206C228.882 41.8913 228.07 40.8473 227.065 40.074C226.06 39.262 224.842 38.8753 223.411 38.914C221.594 38.914 220.105 39.4747 218.945 40.596C217.824 41.7173 216.992 43.1673 216.451 44.946C215.948 46.686 215.697 48.542 215.697 50.514C215.697 52.7953 215.987 54.9607 216.567 57.01C217.147 59.0593 218.036 60.7413 219.235 62.056C220.472 63.3707 222.038 64.028 223.933 64.028ZM247.438 81.718C246.162 81.718 245.06 81.37 244.132 80.674C243.243 80.0167 242.798 79.05 242.798 77.774C242.798 76.962 243.05 76.2273 243.552 75.57C244.094 74.9127 244.79 74.584 245.64 74.584C246.568 74.5453 247.226 74.8353 247.612 75.454C248.038 76.0727 248.25 76.7107 248.25 77.368C248.25 77.484 248.25 77.6 248.25 77.716C248.25 77.832 248.231 77.9673 248.192 78.122C248.308 78.1993 248.482 78.2187 248.714 78.18C249.14 78.1413 249.604 77.9093 250.106 77.484C250.609 77.0587 251.073 76.4593 251.498 75.686C251.962 74.8353 252.484 73.656 253.064 72.148C253.644 70.64 254.282 68.9 254.978 66.928L245.872 47.904C244.828 45.7387 244.094 44.0567 243.668 42.858C243.282 41.6207 243.03 40.654 242.914 39.958L240.13 40.074V37H252.948V39.378H252.832C251.247 39.5327 250.377 40.132 250.222 41.176C250.106 42.22 250.474 43.6507 251.324 45.468L257.704 59.504C258.439 57.532 259.174 55.386 259.908 53.066C260.682 50.746 261.474 48.368 262.286 45.932C262.557 45.1973 262.828 44.424 263.098 43.612C263.408 42.7613 263.717 41.988 264.026 41.292C264.374 40.596 264.703 40.1127 265.012 39.842L261.242 40.074V37H270.754V39.378C269.401 39.842 268.338 40.6927 267.564 41.93C266.83 43.1673 266.114 44.7333 265.418 46.628L258.168 67.044C257.047 70.2533 256.003 72.9407 255.036 75.106C254.07 77.31 252.987 78.9533 251.788 80.036C250.628 81.1573 249.178 81.718 247.438 81.718Z" fill="black"/>
</svg>
